<?xml version="1.0" encoding="utf-8"?>
<!-- Generator: Adobe Illustrator 23.0.1, SVG Export Plug-In . SVG Version: 6.00 Build 0)  -->
<svg version="1.1" id="Layer_1" xmlns="http://www.w3.org/2000/svg" xmlns:xlink="http://www.w3.org/1999/xlink" x="0px" y="0px"
	 viewBox="0 0 600 800" style="enable-background:new 0 0 600 800;" xml:space="preserve">
<g>
	<g>
		<path d="M223.88,67.12c31.15-1.19,64.98,12.04,83.85,37.65c9.82,13.32,12.92,29.71,4.29,44.5c-8.45,14.47-24.13,22.17-39.94,25.78
			c-15.21,3.47-39.96,5.2-45.41-14.11c-4.41-15.6,14.6-27.89,27.24-31.29c26.84-7.22,65.89,6.93,72.6,36.33
			c7.93,34.75-24.47,60.1-51.31,74.3c-15.11,7.99-31.17,14.15-47.73,18.38c-8.5,2.17-17.13,3.84-25.83,4.96
			c-7.05,0.91-14.49,1.87-21.51,0.2c-8.41-2-13.74-9-11.11-17.7c2.37-7.84,9.2-13.69,15.87-17.89
			c13.09-8.24,28.45-12.23,43.81-12.99c27.99-1.37,61.05,6.56,80.88,27.57c23.57,24.98,13,61.14-10.89,81.64
			c-12.49,10.72-27.77,17.78-43.18,23.21c-17.09,6.02-34.86,10.13-52.85,12.26c-8.76,1.03-17.56,1.55-26.37,1.67
			c0.43,0.75,0.86,1.5,1.3,2.26c14.21-23.83,48.75-21.05,71.67-14.61c25.26,7.09,50.43,22.51,61.43,47.29
			c6.63,14.93,7.25,32-1.76,46.08c-8.3,12.96-21.83,22.54-34.9,30.22c-13.56,7.98-28.28,13.93-43.56,17.67
			c-7.84,1.92-15.83,3.26-23.88,3.95c-6.69,0.58-13.97,1.32-20.18-1.83c-2.98-1.51-5.9-4.06-5.16-7.79
			c0.87-4.44,6.24-7.41,9.93-9.19c7.42-3.6,15.93-4.47,24.08-4.24c15.98,0.44,31.71,4.86,46.25,11.35
			c13.75,6.14,26.63,14.12,38.84,22.9c12.18,8.75,24.32,18.35,33.25,30.56c9.06,12.4,13.62,27.22,9.39,42.38
			c-3.98,14.27-13.69,26.91-24.5,36.78c-19.9,18.17-46.88,28.46-73.8,28.5c-6.82,0.01-13.63-0.62-20.31-1.97
			c-6.5-1.31-14.55-2.85-19.27-7.91c-6.5-6.98-0.98-16.94,4.99-22.12c5.45-4.73,12.57-7.24,19.69-7.96
			c15.2-1.52,29.25,4.9,40.86,14.26c11.71,9.44,23.21,21.77,31.26,34.49c4.58,7.24,7.63,15.31,6,23.96c-0.36,1.89,2.53,2.7,2.89,0.8
			c3.21-17.02-9.03-31.16-19.52-43.03c-11.14-12.61-23.83-25.27-40.1-30.86c-13.15-4.52-29.17-4.05-40.75,4.29
			c-10.78,7.77-16.67,23.95-2.79,31.84c12.31,6.99,29.72,7.86,43.51,7c14.9-0.92,29.56-4.81,42.99-11.31
			c26.39-12.78,56.56-41.16,53.3-73.23c-1.57-15.52-10.95-28.8-21.75-39.5c-12.46-12.35-27.35-22.8-42.36-31.79
			c-15.29-9.16-31.84-16.65-49.38-20.2c-15.88-3.22-35.26-4.55-49.19,5.32c-4.27,3.03-8.23,7.85-5.99,13.34
			c2.02,4.95,8.03,7.24,12.88,8.14c7.44,1.39,15.51,0.13,22.93-0.88c9.26-1.26,18.4-3.32,27.31-6.14
			c17.12-5.43,33.38-13.66,47.8-24.36c12.7-9.43,25.2-21.55,28.29-37.74c6.07-31.79-18.81-59.76-45.19-73.14
			c-24.13-12.24-59.59-20.63-84.55-6.02c-5.52,3.23-9.99,7.71-13.26,13.19c-0.58,0.97,0.16,2.27,1.3,2.26
			c20.92-0.28,41.76-3.04,61.98-8.46c18.45-4.94,37.07-11.67,53.02-22.35c26.8-17.94,46.51-54.06,27.1-84.52
			c-17.21-27.01-54.68-37.37-84.94-37.14c-16.95,0.13-34.13,3.91-48.75,12.71c-10.73,6.46-26,21.15-16.78,34.69
			c8.45,12.42,28.98,7.99,41.17,6.03c19.48-3.14,38.5-8.97,56.44-17.17c30.17-13.78,67.28-37.89,64.91-75.83
			c-2.06-33.04-40.6-51.21-70.26-47.18c-13.82,1.88-28.63,9.34-34.91,22.45c-6.92,14.47,4.73,28.36,18.79,31.58
			c8.92,2.04,18.36,0.77,27.19-1.09c8.79-1.85,17.48-4.81,25.19-9.48c13.35-8.08,23.98-22.24,23.89-38.36
			c-0.1-16.91-11.54-31.48-23.96-41.82c-13.29-11.07-29.34-18.81-46.27-22.36c-8.63-1.81-17.41-2.5-26.21-2.17
			C221.95,64.2,221.94,67.2,223.88,67.12L223.88,67.12z"/>
	</g>
</g>
<g>
	<g>
		<path d="M200.22,340.61c-1.2,0.3-2.4,0.6-3.6,0.9c-1.89,0.45-3.53,1.31-4.93,2.6c-1.58,1.02-2.82,2.38-3.73,4.07
			c-1.06,1.66-1.63,3.46-1.72,5.39c-0.43,1.93-0.35,3.85,0.26,5.78c0.49,1.15,0.97,2.31,1.46,3.46c1.29,2.18,3.02,3.91,5.2,5.2
			c1.15,0.49,2.31,0.97,3.46,1.46c2.57,0.69,5.14,0.69,7.71,0c1.2-0.3,2.4-0.6,3.6-0.9c1.89-0.45,3.53-1.31,4.93-2.6
			c1.58-1.02,2.82-2.38,3.73-4.07c1.06-1.66,1.63-3.46,1.72-5.39c0.43-1.93,0.35-3.85-0.26-5.78c-0.49-1.15-0.97-2.31-1.46-3.46
			c-1.29-2.18-3.02-3.91-5.2-5.2c-1.15-0.49-2.31-0.97-3.46-1.46C205.36,339.92,202.79,339.92,200.22,340.61L200.22,340.61z"/>
	</g>
</g>
<g>
	<g>
		<path d="M250,366.3c7.84,0,14.5-6.66,14.5-14.5c0-7.86-6.64-14.5-14.5-14.5c-7.84,0-14.5,6.66-14.5,14.5
			C235.5,359.67,242.14,366.3,250,366.3L250,366.3z"/>
	</g>
</g>
<g>
	<g>
		<path d="M210.85,381.45c0.44,19.96,33.7,17.9,34.2-0.92c0.07-2.57-3.93-2.57-4,0c-0.36,13.67-25.88,15.71-26.2,0.92
			C214.8,378.88,210.8,378.87,210.85,381.45L210.85,381.45z"/>
	</g>
</g>
<g>
	<g>
		<path d="M302.71,456.06c10.23,6.43,20.47,12.87,30.7,19.3c3.83,2.4,7.34-3.65,3.53-6.04c-10.23-6.43-20.47-12.87-30.7-19.3
			C302.42,447.61,298.9,453.67,302.71,456.06L302.71,456.06z"/>
	</g>
</g>
<g>
	<g>
		<path d="M190.34,469.99c-8.68-10.39-16.75-21.25-24.22-32.54c-2.47-3.74-8.54-0.24-6.04,3.53c7.8,11.79,16.25,23.11,25.32,33.96
			C188.28,478.4,193.21,473.42,190.34,469.99L190.34,469.99z"/>
	</g>
</g>
<g>
	<g>
		<path d="M423.06,644.09c6.93-2.79,13.88-5.51,20.88-8.12c1.28-0.48,9.5-2.44,10.06-3.68c-0.44-1.24-0.92-1.26-1.45-0.05
			c-0.68,0.81-1.37,1.6-2.08,2.39c-1.31,1.49-2.62,2.98-3.94,4.47c-10.06,11.43-20.12,22.87-30.17,34.3
			c-2.75,3.13,0.65,7.03,4.24,5.5c6.66-2.85,20.99-8.22,24.69,1.97c2.92,8.02-6.78,16.45-11.78,21.2
			c-12.55,11.9-26.97,21.53-42.59,28.9c-4.07,1.92-0.52,7.96,3.53,6.04c10.94-5.16,21.27-11.42,30.87-18.8
			c8.46-6.5,17.75-13.88,23.52-22.99c4.86-7.66,5.76-17.95-2.38-23.76c-9.13-6.52-20.13-2.57-29.39,1.39
			c1.41,1.83,2.83,3.66,4.24,5.5c7-7.95,13.99-15.91,20.99-23.86c3.5-3.98,7-7.95,10.49-11.93c2.47-2.81,5.93-5.71,7.36-9.25
			c0.95-2.34,0.89-5.12-1.12-6.93c-2.59-2.34-5.87-1.18-8.73-0.19c-9.8,3.42-19.48,7.26-29.11,11.14
			C417.07,639.01,418.87,645.78,423.06,644.09L423.06,644.09z"/>
	</g>
</g>
<g>
	<g>
		<path d="M495.02,640.7c-2.62,16.7-5.24,33.39-7.86,50.09c-0.69,4.41,6.05,6.31,6.75,1.86c2.62-16.7,5.24-33.39,7.86-50.09
			C502.46,638.16,495.71,636.26,495.02,640.7L495.02,640.7z"/>
	</g>
</g>
<g>
	<g>
		<path d="M487.43,610.4c8.59-3.05,17.27-5.85,26.04-8.33c3.71-1.05,10.47-4.3,13.38-0.48c2.76,3.62-0.03,8.75-2.02,11.95
			c-9.17,14.76-18.16,29.1-25.23,45.04c-0.94,2.13,0.09,5.59,3.02,5.27c10.14-1.1,16.31-8.91,25.43-12.29
			c5.9-2.19,11.16,0.8,14.1,6.09c2.97,5.34,2.86,11.7,1.47,17.5c-5.68,23.71-29.11,42.78-50.78,51.53
			c-4.12,1.66-2.32,8.44,1.86,6.75c13.83-5.58,26.38-13.83,36.66-24.68c9.44-9.97,17.91-22.23,19.81-36.12
			c1.58-11.49-3.26-26.44-16.29-28.65c-12.91-2.2-20.39,11.6-32.27,12.89c1.01,1.76,2.01,3.51,3.02,5.27
			c4.58-10.34,9.76-20.41,15.6-30.1c4.74-7.86,13.72-16.94,13.64-26.66c-0.07-8.18-6.38-13.65-14.44-12.31
			c-11.77,1.96-23.67,6.62-34.88,10.6C481.35,605.15,483.17,611.91,487.43,610.4L487.43,610.4z"/>
	</g>
</g>
</svg>
