<?xml version="1.0" encoding="utf-8"?>
<!-- Generator: Adobe Illustrator 23.0.1, SVG Export Plug-In . SVG Version: 6.00 Build 0)  -->
<svg version="1.1" id="Layer_1" xmlns="http://www.w3.org/2000/svg" xmlns:xlink="http://www.w3.org/1999/xlink" x="0px" y="0px"
	 viewBox="0 0 600 800" style="enable-background:new 0 0 600 800;" xml:space="preserve">
<g>
	<g>
		<path d="M265.28,448.63c0.44,19.96,33.7,17.9,34.2-0.92c0.07-2.57-3.93-2.57-4,0c-0.36,13.67-25.88,15.71-26.2,0.92
			C269.23,446.06,265.23,446.06,265.28,448.63L265.28,448.63z"/>
	</g>
</g>
<g>
	<g>
		<path d="M266.53,135.7c2.05,4.04,6.4,6.25,8.2,10.42c0-0.67,0-1.35,0-2.02c-15.89,20.58-45.9,26.73-69.46,16.96
			c0.4,0.98,0.8,1.96,1.2,2.94c1.29-1.78,2.57-3.58,4.02-5.25c0.31-0.36,1.6-1.45,1.78-1.92c0.04-0.12,4.09-3.61-1.19-1.93
			c-0.13,0.04-0.35,1.12-0.48,1.28c-1.28,1.44-2.67,5.72-5.32,4.88c0.29,1.11,0.59,2.23,0.88,3.34
			c17.88-20.29,46.52-17.16,69.07-7.12c2.5,1.12,4.97,2.32,7.39,3.61c2.29,1.22,5,3.03,3.36,6.01c-0.83,1.51-2.84,2.93-4.21,3.85
			c-5.37,3.6-13.27,6.18-19.66,6.83c-14.16,1.45-28.21-4.57-38.52-14.03c-0.13,1.05-0.27,2.09-0.4,3.14c2-1.12,4.3-1.73,6.25-2.8
			c0.88-0.48,1.3-0.85,0.33-0.2c-2.3,1.55-3.85,2.12-6.18-0.14c-0.13,1.05-0.27,2.09-0.4,3.14c10.37-5.77,22.7-7.34,34.2-4.38
			c6.03,1.55,11.76,4.36,16.58,8.32c1.52,1.25,5.75,4.33,5.85,6.47c0.08,1.64-4.74,4.5-6.12,5.47
			c-21.61,15.22-50.08,14.5-72.02,0.44c0,1.15,0,2.3,0,3.45c2.22-1.37,4.6-2.26,6.84-3.51c0.46-0.26,1.18-0.07,1.59-0.29
			c-0.3-0.95-0.54-1.18-0.72-0.66c-0.09,0.19-0.21,0.36-0.36,0.5c-2.97,1.1-3.96,2.82-7.34,0.51c0,1.15,0,2.3,0,3.45
			c11.1-6.91,23.53-11.67,36.46-13.7c6.64-1.04,13.47-1.32,20.16-0.55c6.43,0.74,15.19,2.11,18.72,8.28
			c7.4,12.97-16.58,22.74-25.28,25.61c-14.75,4.87-30.16,6.33-45.5,3.69c0.4,0.98,0.8,1.96,1.2,2.94
			c12.83-18.81,46.32-23.79,60.05-2.99c8.21,12.44-2.76,22.75-14.83,24.92c-13.03,2.34-26.81-3.11-34.76-13.66
			c-0.24,0.91-0.48,1.82-0.72,2.74c10.27-5.16,21.88-7.41,33.34-6.58c7.29,0.52,37.04,7.41,26.18,19.7
			c-6.8,7.7-19.21,10.32-28.97,9.7c-11.14-0.71-21.81-5.38-30.38-12.44c-0.29,1.11-0.59,2.23-0.88,3.34
			c2.42-0.81,4.98-1.73,7.53-2.04c0.05-0.01,2.02,0.04,2.15-0.08c0.04-1.56-0.12-2.05-0.48-1.47c-0.13,0.15-0.28,0.27-0.45,0.37
			c-0.72-0.04-2.28,1.03-3.14,1.13c-1.72,0.2-3.34-0.17-4.73-1.25c-0.29,1.11-0.59,2.23-0.88,3.34c21.74-7.23,49.7-6.11,68.19,8.79
			c16.71,13.46-6.98,26.69-18.78,31.3c-6.77,2.64-13.53,4.16-20.8,4.47c-6.22,0.26-24.83,0.62-24.92-9.11
			c-0.04-4.69,6.15-8.04,9.75-9.68c4.68-2.14,9.91-2.97,15.02-3.21c11.86-0.56,26.7,2.91,30.1,16.11
			c3.98,15.41-17.53,20.82-28.54,23.38c-16.23,3.78-33.1,2.97-48.97-2.01c0.4,0.98,0.8,1.96,1.2,2.94
			c6.62-12.91,20.22-16.16,33.67-13.67c15.69,2.9,27.78,12.3,39.81,22.25c0-0.94,0-1.89,0-2.83c-5.97,4.96-12.38,10.43-20.18,12.1
			c-7.46,1.61-15.91-0.86-19.19-8.2c-0.4,0.98-0.8,1.96-1.2,2.94c11.41-3.7,23.82-3.66,35.09,0.61c6.76,2.56,17.36,6.84,19.29,14.66
			c2.79,11.27-9.69,17.3-18.66,18.9c-13.05,2.34-26.12-0.66-38.41-5.04c0.47,0.82,0.93,1.64,1.4,2.46
			c3.49-10.75,17.69-2.72,23.71,1.4c7.92,5.42,12.52,13.92,11.17,23.66c-0.69,5.01-5.88,8.26-9.91,10.8
			c-4.67,2.95-9.92,3.89-15.4,3.41c-4.92-0.43-9.58-1.52-13.99-3.67c-3.52-1.72-6.91-3.16-10.86-3.42c0.64,0.84,1.29,1.69,1.93,2.53
			c2.64-14.95,18.75-20.1,32.14-16.93c6.77,1.6,12.89,5.2,18.33,9.46c3.29,2.58,8.15,5.64,9.98,9.28c0-0.67,0-1.35,0-2.02
			c-9.72,14.81-35.08,20.89-50.02,10.46c-4.84-3.38-10.68-9.1-6.61-15.12c3.34-4.94,9.13-7.12,14.85-7.56
			c9.15-0.7,18.51,1.31,25.23,7.9c6.83,6.7,10.71,17.32,5.8,26.14c-4.65,8.36-17.67,14.64-23.95,4.09
			c-2.45-4.12-3.5-12.15-0.2-16.01c3.02-3.52,8.6-3.92,12.75-2.72c8.8,2.56,17.93,8.25,22.52,16.37c3.46,6.12,3.21,12.27-1.91,17.36
			c-4.45,4.42-10.68,5.91-16.53,7.6c-13.15,3.8-26.5,5.57-40.05,2.88c0.4,0.98,0.8,1.96,1.2,2.94c1.11-2,2.71-3.96,3.66-6.01
			c0.27-0.38,0.56-0.73,0.9-1.05c0.79-0.66,0.16-1.14-1.9-1.43c-0.07,0.03-0.06,0.81-0.18,0.95c-1.35,1.56-1.36,4.72-4.21,4.53
			c0.58,1,1.15,2.01,1.73,3.01c12.31-21.6,48.72-21.68,54.09,5.37c2.14,10.76-2.1,23.22-12.26,28.4
			c-12.89,6.57-30.63-0.55-35.61-13.98c-0.47,0.82-0.93,1.64-1.4,2.46c11.05-3.11,23.11-1.42,33.65,2.95
			c2.71,1.12,3.45,2.87,5.15,4.95c1.13,1.38,2.82,2.17,3.94,3.49c3.45,4.08-2.25,11.96-4.94,15.28
			c-6.13,7.55-15.51,17.91-25.52,19.33c-10.49,1.49-20.59-1.19-26.05-10.88c-0.58,1-1.15,2.01-1.73,3.01
			c0.97,0.06,6.98,1.36,5.3-0.23c-0.21-0.19-1.28-0.04-1.61-0.33c-0.87-0.74-1.43-1.4-1.97-2.45c-0.58,1-1.15,2.01-1.73,3.01
			c14.07,0.25,42.36-12.33,48.42,7.34c3.92,12.72-6.85,24.25-18.57,27.24c-14.1,3.6-28.62-4.79-39.61-12.76
			c-0.16,1.22-0.32,2.44-0.48,3.66c14.32-5.89,31.34-11.63,46.91-7.79c8.72,2.15,16.64,8.21,19.99,16.73
			c3.66,9.29,0.16,20.79-8.48,25.92c-5.95,3.53-12.5,4.81-18.64,1.19c-5.01-2.95-12.35-6.24-11.43-13.2
			c0.67-5.09,6.45-9.56,10.57-12.23c4.33-2.81,9.13-4.83,14.12-6.14c9.47-2.49,20.79-1.47,27.48,6.58
			c6.95,8.36,5.03,22.3-2.74,29.44c-4.17,3.83-9.76,6.68-14.61,9.57c-5.19,3.1-10.55,6.03-16.21,8.19
			c-11.42,4.37-23.06,4.81-33.15-2.86c0.24,0.91,0.48,1.82,0.72,2.74c3.4-6.29,8.32-10.61,15.47-11.73
			c6.86-1.07,14.04-0.84,20.8,0.75c5.66,1.33,10.27,3.8,15.21,6.69c5.2,3.04,10.24,6.11,8.16,13.03
			c-6.56,21.78-41.39,23.15-51.62,3.93c0,0.67,0,1.35,0,2.02c8.19-11.75,25.53-17.65,36.98-6.42c6.87,6.73,8.02,23.03-0.39,29.19
			c-4.29,3.14-10.41,2.53-15.32,1.45c-5.05-1.11-17.8-8.68-8.48-14.29c3.07-1.85,7.98-0.96,11.46-1.01
			c4.13-0.06,8.26-0.12,12.38-0.02c8.34,0.21,16.53,1.15,24.53,3.56c-0.4-0.98-0.8-1.96-1.2-2.94c-0.73,1.12-3.3,3.58-3.53,4.75
			c-0.2,0.18-0.4,0.35-0.59,0.53c1.09,1.42,1.68,1.62,1.79,0.58c1.38-0.65,0.96-3.27,3.52-2.92c-0.4-0.98-0.8-1.96-1.2-2.94
			c-8.98,12.04-21.44,21.51-35.83,26.06c-6.4,2.03-14.99,4.25-21.66,2.55c-1.91-0.49-4.43-1.65-4.94-3.81
			c-0.48-2.04,0.44-1.94,2.2-2.28c3.35-0.64,6.88-0.67,10.25-0.11c6.06,1,12.43,4.03,15.78,9.4c3.77,6.05,3.22,15.94-3.12,20.04
			c-2.38,1.54-5.68,3.06-8.54,3.28c-6.53,0.52-9.1-6.47-6.41-11.51c4.26-8,14.56-13.37,23.12-9.47c6.9,3.14,16.85,13.5,8.06,20.36
			c-5.2,4.05-13.58,3.02-19.54,1.66c0.47,0.82,0.93,1.64,1.4,2.46c0.32-0.81,3-4.61-0.61-3.92c-0.25,0.05,0.06,1.67-0.79,1.46
			c0.4,0.98,0.8,1.96,1.2,2.94c2.79-4.78,6.52-9,11.57-11.46c4.18-2.03,16.31-4.17,17.79,2.44c0.94,4.21-3.85,9.64-6.42,12.3
			c-4.21,4.38-9.47,7.21-15.64,6.93c0.47,1.14,0.94,2.28,1.41,3.41c1.07-1.07,3.52-1.92,2.13-3.33c-1.18-1.19-1.77-0.19-3.55-0.09
			c0.47,1.14,0.94,2.28,1.41,3.41c7.56-7.53,21.34-11.41,30.33-3.92c9.1,7.59,5.25,26.46-7.93,26.21c-2.57-0.05-2.57,3.95,0,4
			c14.93,0.29,21.59-19.23,13.39-30.25c-9.4-12.63-28.82-8.61-38.61,1.13c-1.17,1.17-0.35,3.52,1.41,3.41
			c2.55-0.16,8.51-1.79,7.37-5.65c-1.41-4.76-7.28,0.74-8.79,2.24c-1.27,1.27-0.28,3.34,1.41,3.41c7.95,0.37,14.93-3.79,19.96-9.74
			c3.53-4.18,8.37-11.16,5.43-16.95c-2.8-5.51-13.07-5.5-18.11-4.28c-7.94,1.92-14.03,7.86-18.04,14.74
			c-0.64,1.09-0.07,2.63,1.2,2.94c3.59,0.89,6.83-2.95,5.73-6.52c-1.88-6.15-6.34,2.05-7.13,4.06c-0.39,0.98,0.43,2.24,1.4,2.46
			c9.91,2.26,26.61,2.32,27.79-11.2c0.59-6.73-3.98-12.4-9.31-15.94c-7.07-4.71-14.38-5.52-21.94-1.47
			c-5.59,2.99-11.6,8.78-12.38,15.4c-0.68,5.78,3.72,11.56,9.55,12.31c5.66,0.73,13.19-3.09,16.66-7.4
			c3.91-4.87,3.96-11.7,2.51-17.53c-3.66-14.75-23.64-18.44-36.08-14.61c-0.62,0.19-1.28,0.71-1.4,1.4
			c-2.83,16.7,21.85,11.86,30.79,9.14c15.75-4.79,29.16-15,38.95-28.12c0.71-0.95,0.01-2.77-1.2-2.94c-4.06-0.56-9.16,2.87-8.7,7.5
			c0.77,7.76,8.93-3.09,9.9-4.56c0.72-1.11-0.01-2.58-1.2-2.94c-8.91-2.68-18.1-3.6-27.38-3.74c-4.4-0.07-8.8,0.03-13.21,0.09
			c-3.4,0.05-7.15-0.46-10.25,1.2c-5.47,2.91-6.98,8.66-3.84,13.83c2.74,4.52,7.65,6.99,12.66,8.09c10.3,2.27,21.01,0.37,24.75-10.7
			c3.5-10.35,0.73-23.18-8.6-29.43c-13.94-9.34-30.96-2.66-39.81,10.04c-0.41,0.59-0.32,1.42,0,2.02
			c4.7,8.83,12.9,13.89,22.76,14.99c9.15,1.02,20.27-0.48,27.5-6.57c6.8-5.73,13.49-17.72,6.2-25.46
			c-3.14-3.34-7.58-5.43-11.46-7.77c-5.24-3.16-11.43-4.83-17.46-5.66c-6.95-0.96-14.89-1.06-21.67,1.04
			c-6.17,1.91-10.89,7.21-13.88,12.73c-0.56,1.04-0.17,2.06,0.72,2.74c10.38,7.89,22.86,8.03,34.8,3.79
			c6.27-2.22,12.2-5.34,17.91-8.72c5.38-3.18,11.49-6.33,16.09-10.59c8.35-7.75,10.78-21.75,5.12-31.77
			c-5.19-9.18-17.33-13.64-27.46-12.19c-11.86,1.7-23.99,7.19-31.36,16.93c-8.22,10.89,3.78,20.43,13.28,24.71
			c10.85,4.89,24.81-2.97,29.58-12.97c4.89-10.26,2.29-21.6-5.11-29.86c-16.69-18.64-45.99-10.15-65.73-2.03
			c-1.64,0.68-1.94,2.59-0.48,3.66c12.03,8.73,28.01,17.34,43.33,13c11.88-3.36,22.76-14.27,21.62-27.32
			c-2.47-28.39-35.93-14.63-53.17-14.94c-1.59-0.03-2.39,1.7-1.73,3.01c1.62,3.19,7,7.17,10.28,3.46c4.34-4.91-6.12-6.33-8.55-6.47
			c-1.56-0.09-2.44,1.75-1.73,3.01c6.2,11,17.75,14.47,29.77,12.84c6.67-0.9,11.87-4.69,16.93-9c4.84-4.12,9.61-9.05,13.29-14.26
			c2.69-3.81,6.47-10.52,4.87-15.4c-0.6-1.82-2.25-2.86-3.64-4.01c-2.13-1.77-3.03-4.25-5.13-6.01c-1.89-1.58-4.29-2.3-6.61-2.95
			c-3.35-0.95-6.64-2.14-10.04-2.9c-7.75-1.73-15.64-1.46-23.27,0.69c-0.97,0.27-1.78,1.44-1.4,2.46
			c8.47,22.86,43.15,26.57,53.49,3.33c9.28-20.84-5.81-44.87-28.87-44.1c-12.4,0.41-24.26,7.06-30.43,17.89
			c-0.79,1.38,0.23,2.91,1.73,3.01c4.28,0.28,8.8-5.28,8.39-9.49c-0.17-1.77-1.32-3.02-3.2-2.57c-3.19,0.76-5.62,6.71-6.91,9.05
			c-0.59,1.06-0.11,2.68,1.2,2.94c10,1.99,20.02,1.9,30.04,0.05c8.86-1.64,19.84-3.67,27.34-8.97c5.62-3.98,9.82-10.57,8.48-17.68
			c-1.37-7.26-6.89-13.63-12.7-17.84c-5.6-4.06-13.54-8.44-20.65-8.25c-6.14,0.17-12.74,3.58-13.79,10.1
			c-1.12,6.97,0.34,15.17,6.22,19.68c5.35,4.1,12.5,3.95,18.18,0.62c5.83-3.41,10.17-9.66,11.43-16.28
			c1.3-6.87-1.75-14.53-5.78-20.01c-8.64-11.78-26.43-16.54-40.02-11.04c-6.03,2.44-12.87,8.72-11.79,15.89
			c0.99,6.57,9.23,12.51,14.88,15.01c13.03,5.78,31.78,2.89,42.95-5.77c2.42-1.88,7.47-5.94,8.07-9.22c0.3-1.67-1.18-3.79-2.25-4.93
			c-1.55-1.64-4.31-3.14-6.13-4.72c-1.69-1.47-3.48-2.85-5.29-4.16c-3.8-2.75-7.89-5.1-12.28-6.78c-16.1-6.15-38.61-1.05-42,18.19
			c-0.23,1.33,0.54,2.44,1.93,2.53c3.97,0.26,7.24,2.15,10.75,3.82c2.81,1.34,5.55,1.94,8.63,2.49c5.88,1.05,11.95,1.47,17.67-0.58
			c5-1.79,11.46-5.9,14.74-10.11c3.08-3.95,2.71-9.54,2.31-14.25c-0.92-10.76-10.04-18.67-19.16-23.07
			c-8.4-4.05-19.78-7.03-23.5,4.45c-0.35,1.08,0.42,2.11,1.4,2.46c14,4.98,30.49,8.71,45.13,4.01c9.51-3.05,18.66-10.02,17.15-21.19
			c-1.3-9.62-11.84-14.58-19.74-17.95c-12.65-5.41-26.79-5.96-39.86-1.71c-1.33,0.43-1.73,1.73-1.2,2.94
			c3.44,7.69,12,11.23,20.11,10.58c10.02-0.8,18.12-7.51,25.54-13.68c0.78-0.65,0.78-2.18,0-2.83
			c-13.41-11.09-27.03-21.44-44.76-23.78c-14.26-1.88-28.16,2.67-35,16.02c-0.6,1.17-0.08,2.54,1.2,2.94
			c16.81,5.27,34.8,5.97,51.95,1.81c10.94-2.66,29.01-7.44,30.95-20.79c1.84-12.62-9.13-22.42-20.38-25.13
			c-11.66-2.8-26.15-1.71-36.15,5.44c-3.61,2.58-7.19,6.43-6.59,11.22c0.59,4.71,4.68,7.91,8.79,9.6c9.07,3.72,20.69,3.3,30.18,1.45
			c9.48-1.85,19.13-5.97,27.1-11.39c6.34-4.31,13.9-11.2,12.22-19.75c-2.42-12.36-19.92-19.01-30.46-21.83
			c-15.89-4.25-33.11-3.54-48.68,1.63c-1.27,0.42-2.16,2.35-0.88,3.34c3.69,2.86,11.64,3.98,14.52-0.92
			c4.52-7.69-12.15-2.91-13.64-2.42c-1.3,0.43-2.12,2.32-0.88,3.34c10.1,8.32,22.73,13.64,35.94,13.71
			c6.24,0.03,12.48-1.17,18.18-3.73c4.9-2.2,12.27-6.26,13.82-11.88c3.72-13.51-16.6-19.65-26.11-21.19
			c-13.99-2.26-28.55,0.1-41.19,6.45c-0.89,0.45-1.34,1.91-0.72,2.74c7.29,9.66,18.38,15.59,30.51,16.14
			c9.5,0.43,21.03-2.64,26.58-10.98c6.28-9.44,1.25-20.59-6.66-27.19c-8.49-7.08-19.82-9.71-30.68-8.34
			c-12.21,1.53-23.25,7.86-30.21,18.06c-0.68,1-0.03,2.73,1.2,2.94c17.78,3.06,35.89,1.11,52.68-5.5
			c10.11-3.98,28.14-13.37,23.77-27.11c-4.24-13.33-24.77-13.8-35.99-13.1c-16.24,1.02-32.18,6.5-45.97,15.07
			c-1.33,0.83-1.24,2.61,0,3.45c4.12,2.8,11.98,2.28,13.61-3.44c2.47-8.66-11.76-1.16-13.61-0.02c-1.31,0.81-1.27,2.64,0,3.45
			c25.16,16.13,60.04,15.55,82.43-5.51c9.06-8.52-16.38-20.42-22.34-22.14c-12.87-3.72-26.9-2.07-38.58,4.43
			c-1.12,0.62-1.32,2.26-0.4,3.14c3.67,3.56,11.07,3.96,13.07-1.82c2.9-8.37-10.34-2.63-12.66-1.32c-1.09,0.61-1.35,2.28-0.4,3.14
			c9.49,8.71,21.61,14.57,34.57,15.33c6.13,0.36,12.45-0.51,18.14-2.83c5.5-2.24,11.15-4.22,15.14-8.84
			c8.53-9.87-8.75-15.25-15.67-18.03c-11.12-4.46-23.27-7.33-35.32-6.67c-13.34,0.73-25.42,6.17-34.29,16.23
			c-1.01,1.14-0.61,2.87,0.88,3.34c4.86,1.54,10.17-4.85,10.78-9.24c0.29-2.09-0.77-3.92-3.15-3.35c-3.65,0.88-6.88,6.95-8.83,9.65
			c-0.84,1.16,0.13,2.5,1.2,2.94c25.39,10.53,57.06,3.12,73.98-18.8c0.46-0.59,0.26-1.41,0-2.02c-1.82-4.22-6.16-6.39-8.2-10.42
			C268.82,131.38,265.37,133.41,266.53,135.7L266.53,135.7z"/>
	</g>
</g>
<g>
	<g>
		<path d="M244.09,449.97c8.11,0,15.87-7.13,15.5-15.5c-0.38-8.4-6.81-15.5-15.5-15.5c-8.11,0-15.87,7.13-15.5,15.5
			C228.96,442.87,235.4,449.97,244.09,449.97L244.09,449.97z"/>
	</g>
</g>
<g>
	<g>
		<path d="M282.38,445.37c8.11,0,15.87-7.13,15.5-15.5c-0.38-8.4-6.81-15.5-15.5-15.5c-8.11,0-15.87,7.13-15.5,15.5
			C267.26,438.27,273.69,445.37,282.38,445.37L282.38,445.37z"/>
	</g>
</g>
<g>
	<g>
		<path d="M266.83,485.6c7.41-3.2,13.75,4.95,19.44,8.26c2.11,1.23,4.25,2,6.66,2.42c3.22,0.56,6.78,0.13,9.14,2.8
			c1.71,1.93,4.53-0.91,2.83-2.83c-2.05-2.32-4.58-3.04-7.56-3.45c-5.24-0.72-8.81-1.97-13.08-5.19
			c-5.82-4.39-12.04-8.66-19.45-5.46C262.45,483.17,264.49,486.61,266.83,485.6L266.83,485.6z"/>
	</g>
</g>
<g>
	<g>
		<path d="M216.55,486.72c-3.55-0.44-6.22-4.76-8.42-7.27c-2.24-2.56-4.45-5.15-6.61-7.77c-4.81-5.83-9.41-11.83-13.83-17.97
			c-1.49-2.07-4.96-0.07-3.45,2.02c5.16,7.16,10.56,14.15,16.23,20.91c4.21,5.01,9.09,13.2,16.08,14.07
			C219.1,491.03,219.08,487.03,216.55,486.72L216.55,486.72z"/>
	</g>
</g>
<g>
	<g>
		<path d="M380.32,59.82c-3.21,20.29-6.42,40.57-9.63,60.86c-1.66,10.47-3.31,20.94-4.97,31.41c-0.88,5.59-3.54,14.06,1.74,18.35
			c4.62,3.76,10.71,0.82,14.78-2.35c7.31-5.7,13.74-13.02,20.2-19.65c13.7-14.09,26.72-28.83,39.07-44.11
			c1.6-1.98-1.21-4.83-2.83-2.83c-10.19,12.62-20.83,24.86-31.95,36.68c-5.56,5.9-11.23,11.7-17.01,17.39
			c-3.27,3.22-19.54,20.74-21.31,8.1c-0.55-3.94,0.87-8.57,1.48-12.47c0.67-4.25,1.35-8.51,2.02-12.76
			c1.35-8.51,2.69-17.01,4.04-25.52c2.74-17.34,5.49-34.68,8.23-52.03C384.58,58.36,380.73,57.28,380.32,59.82L380.32,59.82z"/>
	</g>
</g>
<g>
	<g>
		<path d="M418.33,61.59c3.54,36.26,7.08,72.52,10.63,108.78c0.25,2.54,4.25,2.56,4,0c-3.54-36.26-7.08-72.52-10.63-108.78
			C422.08,59.05,418.08,59.02,418.33,61.59L418.33,61.59z"/>
	</g>
</g>
<g>
	<g>
		<path d="M484.59,48.71c-15.79-0.78-26.63,12.02-31.67,25.64c-5.36,14.5-9.03,32.91-2.42,47.56c15.4,34.12,58.65,9.93,75.28-9.91
			c1.64-1.96-1.17-4.8-2.83-2.83c-14.51,17.3-53.47,41.88-68.36,12.07c-6.52-13.06-3.12-29.43,1.11-42.69
			c4.18-13.09,13.56-26.61,28.88-25.85C487.17,52.84,487.16,48.84,484.59,48.71L484.59,48.71z"/>
	</g>
</g>
</svg>
