<?xml version="1.0" encoding="utf-8"?>
<!-- Generator: Adobe Illustrator 23.0.1, SVG Export Plug-In . SVG Version: 6.00 Build 0)  -->
<svg version="1.1" id="Layer_1" xmlns="http://www.w3.org/2000/svg" xmlns:xlink="http://www.w3.org/1999/xlink" x="0px" y="0px"
	 viewBox="0 0 600 800" style="enable-background:new 0 0 600 800;" xml:space="preserve">
<g>
	<g>
		<path d="M276.38,386.83c0.44,19.96,33.7,17.9,34.2-0.92c0.07-2.57-3.93-2.57-4,0c-0.36,13.67-25.88,15.71-26.2,0.92
			C280.33,384.26,276.33,384.25,276.38,386.83L276.38,386.83z"/>
	</g>
</g>
<g>
	<g>
		<path d="M315.82,544.17c-12.04-14.95-28.99-25.16-47.82-28.85c0.16,1.22,0.32,2.44,0.48,3.66c16.2-10.4,34.57-16.5,53.8-17.75
			c2.58-0.17,2.56-3.79,0-4c-16.81-1.39-33.62-2.79-50.43-4.18c0,1.33,0,2.67,0,4c22.3-2.65,44.96-5.59,64.98-16.45
			c1.45-0.78,1.22-3.32-0.48-3.66c-22.49-4.4-44.98-8.8-67.47-13.2c0,1.29,0,2.57,0,3.86c21.15-5.7,42.57-10.24,64.21-13.6
			c2.22-0.34,1.71-4.06-0.53-3.93c-21.3,1.21-44.54,2.14-62.72-10.87c-0.16,1.22-0.32,2.44-0.48,3.66
			c20.91-8.11,41.82-16.22,62.74-24.33c1.61-0.62,2.17-3.51,0-3.86c-19.71-3.12-39.02-8.08-57.8-14.84c0,1.29,0,2.57,0,3.86
			c17-2.4,34.01-4.8,51.01-7.21c1.28-0.18,1.82-1.95,1.2-2.94c-8.71-13.85-27.47-10.16-41.08-14.14
			c-5.36-1.57-14.34-6.77-7.96-12.79c4.17-3.92,10.65-5.37,15.87-7.31c12.14-4.51,24.28-9.02,36.42-13.53
			c1.65-0.61,2.14-3.49,0-3.86c-12.68-2.16-25.36-4.32-38.04-6.48c-5.04-0.86-10.91-2.81-16.01-2.63c-2.84,0.1-5.01,0.87-7.84-0.3
			c-2.97-1.22-4.95-3.38-6.21-6.29c-0.4,0.98-0.8,1.96-1.2,2.94c23.82-4,47.27-9.82,70.2-17.43c1.81-0.6,1.99-3.33,0-3.86
			c-30.66-8.13-60.92-17.65-90.72-28.52c0,1.29,0,2.57,0,3.86c29.78-5.26,59.63-10.62,88.32-20.4c1.15-0.39,1.95-1.8,1.2-2.94
			c-15.5-23.39-49.19-17.5-68.02-36.39c-0.29,1.11-0.59,2.23-0.88,3.34c23.72-7.71,47.43-15.43,71.15-23.14
			c1.83-0.59,1.97-3.33,0-3.86c-25.5-6.86-51.49-14.08-72.82-30.33c-0.16,1.22-0.32,2.44-0.48,3.66
			c17.16-6.11,34.31-12.22,51.47-18.33c1.46-0.52,2.16-2.86,0.48-3.66c-21.1-9.98-43.39-16.96-66.43-20.7
			c0.29,1.11,0.59,2.23,0.88,3.34c20.36-19.61,46.21-32.45,74.11-36.97c2.53-0.41,1.46-4.27-1.06-3.86
			c-28.55,4.62-55.05,17.94-75.87,38c-1,0.96-0.63,3.1,0.88,3.34c22.69,3.68,44.69,10.46,65.47,20.3c0.16-1.22,0.32-2.44,0.48-3.66
			c-17.16,6.11-34.31,12.22-51.47,18.33c-1.73,0.62-1.86,2.61-0.48,3.66c21.58,16.44,47.98,23.79,73.78,30.73c0-1.29,0-2.57,0-3.86
			c-23.72,7.71-47.43,15.43-71.15,23.14c-1.41,0.46-1.98,2.24-0.88,3.34c9.01,9.04,21.28,12.81,33.19,16.38
			c12.61,3.78,26.52,7.61,34.21,19.21c0.4-0.98,0.8-1.96,1.2-2.94c-28.69,9.78-58.54,15.15-88.32,20.4c-2.12,0.37-1.66,3.25,0,3.86
			c29.8,10.87,60.06,20.39,90.72,28.52c0-1.29,0-2.57,0-3.86c-22.93,7.61-46.37,13.43-70.2,17.43c-1.41,0.24-1.65,1.88-1.2,2.94
			c1.79,4.13,5.23,7.22,9.57,8.53c1.98,0.6,3.9,0.66,5.93,0.55c3.65-0.21,6.65,0.23,10.29,0.85c14.9,2.54,29.8,5.08,44.7,7.62
			c0-1.29,0-2.57,0-3.86c-14.32,5.32-28.65,10.6-42.95,15.96c-6.79,2.55-18.01,7.79-13.66,17.02c3.83,8.13,15.76,9.47,23.56,10.42
			c9.57,1.16,21.67,1.1,27.42,10.24c0.4-0.98,0.8-1.96,1.2-2.94c-17,2.4-34.01,4.8-51.01,7.21c-2.15,0.3-1.63,3.27,0,3.86
			c18.77,6.76,38.09,11.72,57.8,14.84c0-1.29,0-2.57,0-3.86c-20.91,8.11-41.82,16.22-62.74,24.33c-1.66,0.64-1.93,2.61-0.48,3.66
			c18.75,13.42,42.77,12.66,64.74,11.42c-0.18-1.31-0.35-2.62-0.53-3.93c-21.64,3.36-43.06,7.9-64.21,13.6
			c-1.82,0.49-1.99,3.47,0,3.86c22.49,4.4,44.98,8.8,67.47,13.2c-0.16-1.22-0.32-2.44-0.48-3.66
			c-19.38,10.51-41.39,13.34-62.97,15.91c-2.53,0.3-2.61,3.78,0,4c16.81,1.39,33.62,2.79,50.43,4.18c0-1.33,0-2.67,0-4
			c-19.91,1.29-39.02,7.51-55.81,18.29c-1.34,0.86-1.31,3.31,0.48,3.66c18.25,3.57,34.4,13.34,46.06,27.82
			C314.6,549,317.42,546.15,315.82,544.17L315.82,544.17z"/>
	</g>
</g>
<g>
	<g>
		<path d="M271.23,379.5c8.11,0,15.87-7.13,15.5-15.5c-0.38-8.4-6.81-15.5-15.5-15.5c-8.11,0-15.87,7.13-15.5,15.5
			C256.11,372.4,262.54,379.5,271.23,379.5L271.23,379.5z"/>
	</g>
</g>
<g>
	<g>
		<path d="M304.94,379.5c8.11,0,15.87-7.13,15.5-15.5c-0.38-8.4-6.81-15.5-15.5-15.5c-8.11,0-15.87,7.13-15.5,15.5
			C289.81,372.4,296.25,379.5,304.94,379.5L304.94,379.5z"/>
	</g>
</g>
<g>
	<g>
		<path d="M324.91,419c13.68-16.4,29.45-30.83,47.06-42.92c2.11-1.45,0.11-4.92-2.02-3.45c-17.89,12.28-33.97,26.88-47.87,43.54
			C320.44,418.13,323.25,420.98,324.91,419L324.91,419z"/>
	</g>
</g>
<g>
	<g>
		<path d="M280.39,430.81c-8.7-9.37-17.91-18.21-27.63-26.52c-1.95-1.66-4.79,1.15-2.83,2.83c9.72,8.31,18.93,17.15,27.63,26.52
			C279.32,435.53,282.14,432.7,280.39,430.81L280.39,430.81z"/>
	</g>
</g>
<g>
	<g>
		<path d="M329.74,550.36c-1.96,12.44-3.92,24.88-5.88,37.33c-1.03,6.55-2.06,13.1-3.09,19.64c-0.62,3.93-2.55,9.51-1.08,13.44
			c3.04,8.1,11.88,0.63,15.6-2.52c8.06-6.84,16.3-14.96,27.42-15.71c2.55-0.17,2.57-4.17,0-4c-7.47,0.51-13.83,3.73-19.76,8.18
			c-3.02,2.27-5.87,4.75-8.74,7.2c-1.55,1.33-3.1,2.69-4.7,3.96c-0.83,0.65-2.72,2.46-3.86,2.41c-2.51-0.1-2.36-3.06-2.16-4.62
			c2.69-21.47,6.74-42.86,10.1-64.24C333.99,548.9,330.14,547.82,329.74,550.36L329.74,550.36z"/>
	</g>
</g>
<g>
	<g>
		<path d="M354.73,558.4c13.78,36.05,25.49,72.85,35.06,110.23c0.64,2.49,4.5,1.44,3.86-1.06c-9.58-37.38-21.28-74.18-35.06-110.23
			C357.67,554.96,353.8,555.99,354.73,558.4L354.73,558.4z"/>
	</g>
</g>
<g>
	<g>
		<path d="M412.58,566.68c4.95,23.68,7.08,47.77,6.4,71.94c-0.07,2.57,3.93,2.57,4,0c0.69-24.53-1.52-48.99-6.54-73.01
			C415.91,563.1,412.05,564.16,412.58,566.68L412.58,566.68z"/>
	</g>
</g>
<g>
	<g>
		<path d="M393.07,555.94c3.16-7.05,6.93-13.79,11.47-20.05c1.94-2.68,6.65-11.59,11.15-6.68c2.39,2.6,2.28,7.99,2.35,11.18
			c0.37,16.7-0.77,33.48-2.86,50.05c-0.26,2.09,2.77,2.55,3.73,1.01c7.06-11.39,14.37-23.14,24.88-31.71
			c4.81-3.92,15.58-11.98,21.51-6.39c4.59,4.32,1.6,13.63,0.2,18.64c-7.17,25.69-23.72,48.26-45.87,63.06
			c-2.13,1.42-0.13,4.89,2.02,3.45c13.19-8.81,24.48-20.14,33.16-33.43c7.92-12.13,15.49-27.57,16.63-42.23
			c0.41-5.22-0.61-11.29-5.61-14.08c-6.33-3.52-14.13,0.7-19.48,4.17c-13.61,8.83-22.53,22.98-30.9,36.49
			c1.24,0.34,2.48,0.67,3.73,1.01c1.44-11.45,2.38-22.94,2.73-34.47c0.26-8.43,1.9-19.64-2.06-27.5c-1.25-2.48-3.36-5.2-6.33-5.51
			c-3.41-0.36-5.8,2.53-7.76,4.87c-6.59,7.89-11.93,16.73-16.13,26.09C388.57,556.25,392.02,558.29,393.07,555.94L393.07,555.94z"/>
	</g>
</g>
</svg>
