<?xml version="1.0" encoding="utf-8"?>
<!-- Generator: Adobe Illustrator 23.0.1, SVG Export Plug-In . SVG Version: 6.00 Build 0)  -->
<svg version="1.1" id="Layer_1" xmlns="http://www.w3.org/2000/svg" xmlns:xlink="http://www.w3.org/1999/xlink" x="0px" y="0px"
	 viewBox="0 0 600 800" style="enable-background:new 0 0 600 800;" xml:space="preserve">
<g>
	<g>
		<path d="M202.06,393.46c0.44,19.96,33.7,17.9,34.2-0.92c0.07-2.57-3.93-2.57-4,0c-0.36,13.67-25.88,15.71-26.2,0.92
			C206,390.89,202,390.88,202.06,393.46L202.06,393.46z"/>
	</g>
</g>
<g>
	<g>
		<path d="M243.57,67.26c11.85,2.62,24.83,5.3,34.29,13.43c9.05,7.77,14.23,20.44,8,31.53c-5.67,10.08-16.48,18-26.45,23.43
			c-9.45,5.15-22.03,10.17-33.02,9.8c-4.19-0.14-17.21-5.22-8-9.78c5-2.48,12.75-1.62,17.97-0.44c10.97,2.49,23.68,10.7,25.86,22.57
			c2.19,11.88-9.56,16.86-19.33,16.96c-4.59,0.05-9.68-0.49-13.8-2.64c-3.59-1.86-5.83-5.25-2.84-8.88c1.9-2.31,5.18-3.76,8.02-4.39
			c10.48-2.31,21.29,4.25,24.39,14.41c3.58,11.76-2.18,24.34-12.21,30.85c-8.52,5.53-22.66,8.83-32.02,3.43
			c-5.93-3.42-6.36-10.01-2.44-15.2c4.53-5.99,11.96-6.98,18.97-5.68c9.82,1.82,28.32,7.79,27.86,20.37
			c-0.39,10.45-9.44,20.77-17.04,27.07c-8.48,7.04-18.68,11.95-29.06,15.49c-5.2,1.78-13.76,5.53-18.57,1.32
			c-4-3.49-2.37-10.07,0.01-13.98c5.95-9.78,19.76-12.55,30.1-9.45c11.46,3.45,18.24,14.05,17.85,25.83
			c-0.37,11.28-7.18,21.53-18.28,24.63c-10.84,3.02-23.31-0.77-30.02-9.94c-0.1,0.81-0.21,1.62-0.31,2.42
			c10.18-12.55,29.19-14.09,42.74-6.18c15.77,9.19,17.36,28.75,7.37,42.97c-5.1,7.27-13.02,12.94-21.94,14.13
			c-4.84,0.65-10.41,0.06-13.9-3.79c-5.44-6,4.67-9.97,9.32-11.33c19.78-5.77,40.69,7.4,41.06,28.61
			c0.19,11.12-5.49,21.67-15.86,26.25c-10.07,4.45-22.39,3.03-30.59-4.47c0,0.94,0,1.89,0,2.83c6.76-5.73,15.2-10.81,24.37-10.61
			c8.07,0.17,16.84,4.72,19.13,12.95c2.23,8.02-2.42,16.53-8.72,21.3c-7.23,5.48-16.77,6.67-25.59,6.49
			c-3.32-0.07-8.49,0.33-11.33-1.77c-4.82-3.55-0.24-9.53,3.38-12.13c5.09-3.65,12.05-4.42,18.01-2.77
			c17.26,4.76,15.77,25.58,6.05,36.93c-5.61,6.55-13.69,10.52-21.75,13.17c-6.86,2.26-14.7,4.69-21.98,4.79
			c-3.24,0.04-8.08-0.36-9.44-3.91c-1.88-4.89,3.52-8.16,7.36-9.67c6.58-2.59,14.49-3.02,21.49-2.86
			c15.16,0.33,31.35,8.19,30.6,25.62c-0.73,16.99-19.76,27.33-34.48,18.46c-2.41-1.45-6.01-4.23-5.34-7.55
			c0.52-2.58,3.49-4.24,5.69-5.13c4.13-1.68,9-1.8,13.4-1.32c9.35,1.02,18.43,6.07,22.68,14.7c3.97,8.05,3.72,18.97-3.24,25.36
			c-6.27,5.77-15.88,7.03-22.99,2.16c0.24,0.91,0.48,1.82,0.72,2.74c7.66-13.79,27.89-17.72,39.84-7.08
			c12.49,11.12,12.66,31.47,0.66,42.91c-6.04,5.75-14.33,9.12-22.67,9.26c-4.16,0.07-8.33-0.54-11.93-2.76
			c-4.46-2.75-9.44-9.2-3.69-13.48c6.16-4.59,18-0.66,24.31,2.01c8.73,3.7,14.15,11.41,11.71,21.04
			c-2.59,10.21-11.5,16.26-21.36,18.37c-5.31,1.13-27.87,3.71-26.63-6.3c-0.49,0.64-0.98,1.29-1.47,1.93
			c10.3-3.76,25.85-6.46,35.92-0.48c5.45,3.24,6.35,10.02,4.38,15.6c-1.99,5.63-6.9,9.53-11.97,12.3
			c-4.69,2.56-10.03,4.89-15.29,5.92c-3.35,0.66-6.93,0.72-9.94-1.08c-3.93-2.35-5.79-7.31-2.3-10.87
			c7.11-7.25,21.66-3.08,29.22,1.06c8.78,4.81,15.92,13.24,17.23,23.39c1.19,9.19-2.25,19.07-9.12,25.35
			c-3.64,3.32-8.71,6.03-13.77,5.85c-7.71-0.27-8.49-8.32-2.61-12.19c5.42-3.57,11.32,0.56,14.21,5.34
			c2.91,4.81,3.59,10.72,2.77,16.2c-1.73,11.58-10.25,22.08-21.68,25.2c-11.6,3.17-24.17-1.03-31.94-10.06
			c-0.13,1.05-0.27,2.09-0.4,3.14c12.47-5.98,27.09-13.1,41.21-8.93c12.14,3.58,21.75,15.65,15.28,28.23
			c-5.14,10.01-17.19,15.76-27.41,19.01c-11.58,3.68-26.23,5.98-35.87-3.21c0,0.94,0,1.89,0,2.83c9.11-8.94,21.98-15.69,34.77-10.66
			c11.03,4.33,18.96,17.11,11.06,27.9c-3.23,4.42-8.87,7.99-14.53,7.35c-3.33-0.38-8.64-2.69-7.04-6.87
			c1.04-2.71,4.4-3.94,7.07-4.48c12.19-2.45,26.23,7.15,33.21,16.29c0-0.67,0-1.35,0-2.02c-3.92,5.56-11.58,6.42-16.93,2.5
			c0.13,1.05,0.27,2.09,0.4,3.14c5.59-6.2,13.28,3.96,5.52,7.59c-2.33,1.09-0.3,4.54,2.02,3.45c4.97-2.33,7.33-9.07,3.86-13.69
			c-3.48-4.65-10.55-4.26-14.23-0.18c-0.93,1.03-0.66,2.36,0.4,3.14c7.23,5.3,17.33,3.26,22.41-3.94c0.37-0.52,0.39-1.5,0-2.02
			c-7.77-10.17-20.75-18.78-34.03-18.56c-4.78,0.08-10.8,2.04-13.25,6.49c-2.26,4.12-0.06,8.58,3.65,10.91
			c10.04,6.29,22.77-1.19,27.08-10.94c5.1-11.53-2.46-23.74-13.01-28.83c-14.79-7.13-30.34-0.14-41.26,10.58
			c-0.76,0.74-0.78,2.09,0,2.83c10.75,10.24,26.7,8.39,39.76,4.24c12.08-3.84,26.26-11,31.05-23.61
			c4.92-12.98-3.69-25.28-15.62-30.18c-16.09-6.61-33.06,1.2-47.6,8.17c-1.24,0.6-1.18,2.25-0.4,3.14
			c9.1,10.57,24.52,15.1,37.81,10.46c13.36-4.66,22.65-18.11,22.94-32.18c0.21-10.51-8.1-27.74-21.27-22.32
			c-4.7,1.94-8.69,7.11-8.13,12.37c0.61,5.65,6.21,8.43,11.39,8.33c13.12-0.26,23.18-12.56,25.69-24.57
			c2.8-13.38-3.09-26.36-13.92-34.39c-9.57-7.1-27.24-12.85-37.77-4.42c-4.61,3.69-5.49,9.89-1.86,14.62
			c4.24,5.54,11.41,6.23,17.77,4.75c13.99-3.24,33.63-13.94,29.96-31.22c-3.95-18.58-33.32-14.27-45.96-9.66
			c-0.93,0.34-1.35,0.98-1.47,1.93c-1.3,10.52,14.05,11.42,21.04,11.31c11.12-0.17,23.1-3.4,30.1-12.64
			c5.96-7.88,7.81-19.34,1.52-27.59c-6.32-8.28-19.44-12.04-29.49-12.04c-8.87,0-17.52,7.02-12.21,16.29
			c5.51,9.62,18.35,11.04,28.12,8.89c21.51-4.72,34.33-27.27,24.9-47.72c-4.76-10.33-14.49-17.26-25.95-17.63
			c-11.21-0.36-22.23,5.26-27.72,15.14c-0.55,1-0.19,2.11,0.72,2.74c7.68,5.27,18.03,4.49,25.49-0.86
			c7.65-5.49,10.53-15.11,8.89-24.17c-1.92-10.62-9.58-18.8-19.54-22.52c-8.46-3.16-20.71-4.05-28.26,1.77
			c-8.77,6.75-1.62,15.66,6.13,19.03c8.87,3.85,19.79,2.68,27.53-3.17c7.76-5.87,11.19-16.06,9.76-25.53
			c-1.46-9.73-8.18-17.33-17.15-21.04c-9.54-3.95-20.38-3.78-30.43-2.35c-7.29,1.03-19.35,3.87-20.02,13.06
			c-0.7,9.52,10.57,11.09,17.53,10.21c10.99-1.4,22.8-4.71,32.4-10.33c9.46-5.55,16.94-14.51,18.78-25.54
			c1.43-8.63-1.21-17.78-8.5-23.03c-6.85-4.93-16.47-5.83-24.24-2.71c-6.26,2.51-14.88,10.25-11.38,17.8
			c1.97,4.25,7.01,5.19,11.19,5.59c7.2,0.69,14.77,0.5,21.79-1.37c11.1-2.95,21.15-11.38,22.65-23.3
			c1.36-10.77-6.13-19.67-16.16-22.66c-12.64-3.77-25.08,2.66-34.53,10.67c-0.8,0.68-0.75,2.14,0,2.83
			c17.38,15.91,47.14,7.1,52.39-16.04c5.57-24.58-15.33-45.52-39.78-42.18c-7.48,1.02-24.9,6.77-18,17.33
			c5.94,9.1,19.09,8.02,27.73,4.12c19.19-8.66,30.49-35.19,16.93-53.2c-13.25-17.6-43.38-19.26-57.47-1.9
			c-0.52,0.64-0.87,1.67-0.31,2.42c7.31,9.98,19.94,14.62,32.07,12.34c12.67-2.38,21.63-12.74,23.37-25.34
			c1.69-12.25-3.45-24.96-14.58-30.97c-10.88-5.88-25.37-4.94-35.09,2.84c-7.42,5.94-13.61,21.93-1.6,26.84
			c6.94,2.84,15.53-0.88,22.08-3.29c6.92-2.55,13.67-5.67,19.9-9.63c11.63-7.38,23.9-19.34,26.1-33.62
			c2.38-15.45-15.87-22.71-27.9-25.79c-7.07-1.81-15.19-2.16-21.43,2.2c-4.77,3.33-8.49,9.13-7.89,15.13
			c1.38,13.85,19.85,14.48,30.05,12.21c14.2-3.16,26.23-13.9,28.03-28.77c1.59-13.16-5.8-25.85-19.03-29.04
			c-5.85-1.41-12.36-0.81-17.51,2.44c-4.3,2.71-7.87,7.64-5.38,12.77c4.96,10.23,23.94,9.8,32.81,6.43c13-4.95,15.03-18.9,7.4-29.69
			c-8.42-11.9-23.95-18.14-38.28-16.59c-4.92,0.53-11.83,2.14-12.22,8.21c-0.32,5,4.83,8.18,8.96,9.6
			c6.82,2.34,14.56,0.46,21.31-1.29c7.71-2.01,15.18-5.11,22.07-9.12c12.15-7.07,27.97-19.04,29.12-34.28
			c1.16-15.29-11.17-27.52-24.13-33.23c-7.64-3.36-15.78-5.21-23.9-7.01C242.13,62.85,241.06,66.71,243.57,67.26L243.57,67.26z"/>
	</g>
</g>
<g>
	<g>
		<path d="M206.47,393.29c8.11,0,15.87-7.13,15.5-15.5c-0.38-8.4-6.81-15.5-15.5-15.5c-8.11,0-15.87,7.13-15.5,15.5
			C191.34,386.19,197.78,393.29,206.47,393.29L206.47,393.29z"/>
	</g>
</g>
<g>
	<g>
		<path d="M249.36,391.76c8.11,0,15.87-7.13,15.5-15.5c-0.38-8.4-6.81-15.5-15.5-15.5c-8.11,0-15.87,7.13-15.5,15.5
			C234.24,384.65,240.67,391.76,249.36,391.76L249.36,391.76z"/>
	</g>
</g>
<g>
	<g>
		<path d="M254.18,476.25c8.34-14.46,18.42-27.71,30.14-39.59c1.81-1.83-1.02-4.67-2.83-2.83c-11.95,12.12-22.26,25.66-30.76,40.4
			C249.44,476.47,252.89,478.48,254.18,476.25L254.18,476.25z"/>
	</g>
</g>
<g>
	<g>
		<path d="M220.15,483.54c-9.02-16.46-24.01-28.72-41.88-34.4c-2.46-0.78-3.51,3.08-1.06,3.86c16.91,5.37,30.97,17.01,39.49,32.56
			C217.94,487.82,221.39,485.8,220.15,483.54L220.15,483.54z"/>
	</g>
</g>
<g>
	<g>
		<path d="M24.97,64.68c-1.76,20.86-3.52,41.74-4.07,62.67c-0.26,9.8-0.25,19.6,0.14,29.39c0.27,6.66-0.11,15.06,4.28,20.64
			c10.47,13.31,25.17-10.64,30.52-17.54c11.67-15.07,22.31-30.89,31.93-47.35c1.3-2.23-2.15-4.24-3.45-2.02
			c-8.3,14.2-17.35,27.95-27.19,41.12c-4.99,6.68-10.11,13.33-15.59,19.62c-2.46,2.82-6.06,7.13-10.33,5.77
			c-3.63-1.15-4.82-5.87-5.39-9.17c-1.38-8.03-1.03-16.67-1.08-24.79c-0.05-8.5,0.15-16.99,0.51-25.48
			c0.76-17.65,2.24-35.26,3.73-52.87C29.19,62.11,25.19,62.13,24.97,64.68L24.97,64.68z"/>
	</g>
</g>
<g>
	<g>
		<path d="M78.96,52.4c-0.06,36.76,0.23,73.52,0.87,110.28c0.04,2.57,4.04,2.58,4,0c-0.64-36.76-0.93-73.52-0.87-110.28
			C82.96,49.83,78.96,49.82,78.96,52.4L78.96,52.4z"/>
	</g>
</g>
<g>
	<g>
		<path d="M91.19,73.84c2.38,21.5,4,43.08,4.86,64.7c0.1,2.61,3.76,2.54,4,0c2.09-22.51,4.73-44.96,7.92-67.34
			c-0.98,0.4-1.96,0.8-2.94,1.2c8.27,5.67,14.38,14.47,20.81,22.03c6.7,7.87,13.4,15.74,20.1,23.61c1.67,1.96,4.49-0.88,2.83-2.83
			c-7.12-8.36-14.23-16.72-21.35-25.09c-6.31-7.42-12.26-15.61-20.37-21.18c-0.97-0.67-2.76-0.05-2.94,1.2
			c-3.24,22.74-5.94,45.54-8.06,68.41c1.33,0,2.67,0,4,0c-0.86-21.62-2.49-43.19-4.86-64.7C94.91,71.31,90.91,71.28,91.19,73.84
			L91.19,73.84z"/>
	</g>
</g>
<g>
	<g>
		<path d="M99.58,121.2c7.19-7.09,13.77-14.7,19.81-22.79c1.54-2.06-1.93-4.06-3.45-2.02c-5.83,7.82-12.25,15.14-19.19,21.99
			C94.92,120.18,97.75,123.01,99.58,121.2L99.58,121.2z"/>
	</g>
</g>
</svg>
