<?xml version="1.0" encoding="utf-8"?>
<!-- Generator: Adobe Illustrator 23.0.1, SVG Export Plug-In . SVG Version: 6.00 Build 0)  -->
<svg version="1.1" id="Layer_1" xmlns="http://www.w3.org/2000/svg" xmlns:xlink="http://www.w3.org/1999/xlink" x="0px" y="0px"
	 viewBox="0 0 600 800" style="enable-background:new 0 0 600 800;" xml:space="preserve">
<g>
	<g>
		<path d="M244.66,400.92c0.44,19.96,33.7,17.9,34.2-0.92c0.07-2.57-3.93-2.57-4,0c-0.36,13.67-25.88,15.71-26.2,0.92
			C248.6,398.35,244.6,398.34,244.66,400.92L244.66,400.92z"/>
	</g>
</g>
<g>
	<g>
		<path d="M338.04,129.82c-10.8,11.28-22.86,21.43-36.81,28.6c-7.08,3.64-14.59,6.43-22.36,8.16c-3.97,0.88-7.81,1.53-11.75,0.15
			c-3.3-1.16-8.51-4.71-7.96-8.72c0.8-5.82,8.76-10.28,13.66-11.96c5.83-1.99,12.19-2.34,18.29-1.7
			c12.77,1.34,26.56,8.64,33.21,19.93c7.84,13.33,0.73,30.13-7.56,41.53c-9.18,12.63-23.24,25.46-39.75,25.28
			c-4.43-0.05-8.79-1.06-12.79-2.96c-3.43-1.63-4.68-5.34-0.67-7.22c2.13-1,4.7-1.49,6.99-1.92c9.2-1.71,18.87-0.26,27.62,2.82
			c6.73,2.37,13.71,6.57,17.25,12.99c3.73,6.77,2.7,15.79-0.36,22.65c-5.78,12.94-19.81,22.56-33,26.77
			c-7.4,2.36-15.76,3.45-23.3,1.11c-2.95-0.91-10.09-3.68-9.38-7.74c0.67-3.85,10.12-3.3,13.3-3.31
			c15.77-0.06,35.95,7.34,41.71,23.47c4.78,13.4,0.43,31.16-5.57,43.5c-6.34,13.03-16.38,24.11-28.53,31.98
			c-6.06,3.93-13.23,7.68-20.51,8.52c-4.67,0.54-10.59-0.8-11.61-6.18c-1.06-5.61,4.94-9.49,9.37-10.92
			c17.31-5.6,36.67,4.98,48.96,16.54c6.95,6.54,11.38,13.66,13.77,22.94c2.27,8.82,2.71,18.62-0.1,27.38
			c-4.49,13.99-17.3,24.76-31.8,26.96c-3.29,0.5-7.1,0.79-10.32-0.2c-2.27-0.7-7.37-3.16-7.26-6.12c0.17-4.49,9.15-4.77,12.44-4.61
			c4.6,0.23,9.06,1.48,13.34,3.1c14.12,5.33,31.49,18.56,31.54,35.33c0.03,8.79-2.25,15.7-9.14,21.41
			c-6.23,5.17-13.66,7.55-21.34,9.67c-4.3,1.19-8.67,2.11-13.15,2.13c-1.75,0.01-10.45-0.04-10.81-3.03
			c-0.41,0.72-0.83,1.44-1.24,2.16c9.22-4.67,22.95-0.52,31.32,4.59c8.58,5.24,15.08,13.53,18.54,22.91
			c7.51,20.39-7.56,43.88-27.59,49.81c-7.33,2.17-16.33,4.1-23.61,0.74c-3.26-1.51-7.51-4.48-4.91-8.14
			c2.46-3.45,6.82-4.85,10.82-5.51c18.69-3.05,38.62,6.91,43.73,25.91c6.36,23.64-15.24,46.03-38.67,44.69c-3.21-0.18-3.2,4.82,0,5
			c23.9,1.37,47.36-20.02,44.66-44.64c-2.69-24.55-26.05-39.15-49.54-36c-4.25,0.57-8.52,1.78-11.96,4.46
			c-2.75,2.14-6.35,6.59-5.2,10.28c1.28,4.1,6.45,7.51,10.2,8.98c4.69,1.83,9.91,1.95,14.85,1.37
			c23.27-2.73,45.59-22.38,44.18-47.29c-0.79-13.9-8.78-26.67-19.89-34.82c-10.31-7.57-27.42-12.75-39.43-6.66
			c-0.7,0.36-1.33,1.35-1.24,2.16c1.03,8.72,13.62,8.48,20.2,7.76c10.13-1.11,21.3-4.37,29.8-10.11
			c7.28-4.93,13.47-12.1,14.04-21.19c0.33-5.21,0.73-10.05-1-15.06c-1.63-4.69-4.11-8.99-7.2-12.87
			c-11.63-14.63-36.28-28.58-54.97-19.49c-7.61,3.7-2.63,12.68,2.67,15.87c7.19,4.32,16.6,3.15,24.22,0.56
			c19.02-6.46,30.82-24.31,30.65-44.17c-0.09-10.79-2.95-22.73-9.46-31.47c-6.68-8.97-15.79-16.2-25.75-21.16
			c-9.5-4.73-20.21-7.89-30.88-6.12c-8.69,1.44-18.73,6.94-17.89,17.2c0.76,9.29,11.35,11.97,19.06,10.55
			c9.73-1.8,18.89-7.19,26.63-13.15c14.89-11.47,26.07-27.8,30.28-46.21c2.07-9.07,3.15-19.61,0.75-28.71
			c-2.48-9.37-9.31-15.96-17.25-20.88c-9.4-5.81-20.56-8.56-31.63-8.19c-7.09,0.24-18.18,0.3-16.36,10.24
			c1.51,8.25,12.96,11.35,20.11,11.93c9.95,0.81,19.84-2.2,28.61-6.68c16.41-8.4,31.52-23.97,29.3-43.82
			c-2.24-20.01-27.71-27.95-44.69-27.69c-7.15,0.11-21.69,1.22-23.01,10.54c-1.29,9.07,15.04,12.01,21.36,12.24
			c20.29,0.74,38.23-16.23,48.04-32.57c4.83-8.04,8.96-18.19,8.55-27.72c-0.37-8.67-4.64-16.42-10.87-22.3
			c-12.15-11.47-29.42-16.76-45.86-13.48c-7.49,1.5-14.63,5.21-19.15,11.51c-2.36,3.29-3.92,6.07-2.27,9.97
			c1.61,3.81,4.48,6.89,8.15,8.8c8.86,4.61,19.35,1.12,28.12-2c9.81-3.49,19.02-8.5,27.47-14.55c8.4-6.01,16.05-12.94,23.19-20.4
			C343.8,131.04,340.27,127.5,338.04,129.82L338.04,129.82z"/>
	</g>
</g>
<g>
	<g>
		<path d="M243.32,392.04c7.57,0,14-6.43,14-14c0-7.59-6.41-14-14-14c-7.57,0-14,6.43-14,14
			C229.32,385.64,235.73,392.04,243.32,392.04L243.32,392.04z"/>
	</g>
</g>
<g>
	<g>
		<path d="M283.15,393.06c7.57,0,14-6.43,14-14c0-7.59-6.41-14-14-14c-7.57,0-14,6.43-14,14
			C269.15,386.66,275.56,393.06,283.15,393.06L283.15,393.06z"/>
	</g>
</g>
<g>
	<g>
		<path d="M263.05,446.69c-4.48-6.1-9.82-11.32-16.04-15.63c-1.59-1.1-3.09,1.5-1.51,2.59c5.77,4,10.81,8.89,14.96,14.55
			C261.59,449.75,264.2,448.25,263.05,446.69L263.05,446.69z"/>
	</g>
</g>
<g>
	<g>
		<path d="M310.61,437.89c5.4,0.44,8.35-4.12,11.3-7.95c4.8-6.23,10.39-11.66,16.73-16.32c1.54-1.13,0.04-3.74-1.51-2.59
			c-4.49,3.3-8.7,6.92-12.49,11.02c-3.48,3.77-8.25,13.31-14.02,12.84C308.68,434.74,308.69,437.74,310.61,437.89L310.61,437.89z"/>
	</g>
</g>
<g>
	<g>
		<path d="M59.5,32.96c11.57-2.74,23.35-4.35,35.25-4.63c5.11-0.12,11.62-0.89,16.51,0.73c6.94,2.3-3.4,13.93-5.98,16.78
			c-7.4,8.2-16.03,15.39-24.15,22.86c-8.93,8.23-17.86,16.45-26.79,24.68c-1.41,1.3,0.06,4.06,1.95,3.34
			c5.95-2.26,11.97-4.33,18.08-6.14c6.08-1.8,12.84-4.28,19.25-4.24c16.58,0.11,11.61,21.02,6.34,30.07
			c-5.57,9.56-14.01,17.75-22.22,25.07c-9.18,8.19-19.85,15.28-32.55,15.41c-2.57,0.03-2.58,4.03,0,4
			c13.8-0.15,25.39-7.67,35.38-16.58c10.01-8.93,20.74-19.35,25.87-32.01c3.8-9.37,4.97-24.99-6.96-29.09
			c-6.1-2.1-12.84-0.12-18.82,1.45c-8.63,2.27-17.1,5.04-25.44,8.2c0.65,1.11,1.3,2.23,1.95,3.34
			c11.1-10.23,22.21-20.46,33.31-30.69c9.4-8.66,20.54-17.27,26.25-29.02c5.65-11.63-8.55-12.13-16.28-12.21
			c-14.16-0.15-28.26,1.55-42.02,4.81C55.94,29.7,57,33.55,59.5,32.96L59.5,32.96z"/>
	</g>
</g>
<g>
	<g>
		<path d="M181.97,42.88c-28.12-5.75-52.04,14.43-65.18,37.43c-6.36,11.13-11.2,25.18-7.29,37.97
			c3.54,11.57,13.86,19.27,25.41,21.78c11.92,2.59,26.69-0.02,32.85-11.67c1.2-2.27-2.25-4.3-3.45-2.02
			c-6.73,12.72-24.89,12.65-36.35,7.12c-15.02-7.24-18.3-23.08-13.58-38.01c8.54-27.01,36.08-54.96,66.53-48.74
			C183.42,47.25,184.49,43.4,181.97,42.88L181.97,42.88z"/>
	</g>
</g>
</svg>
