<?xml version="1.0" encoding="utf-8"?>
<!-- Generator: Adobe Illustrator 23.0.1, SVG Export Plug-In . SVG Version: 6.00 Build 0)  -->
<svg version="1.1" id="Layer_1" xmlns="http://www.w3.org/2000/svg" xmlns:xlink="http://www.w3.org/1999/xlink" x="0px" y="0px"
	 viewBox="0 0 600 800" style="enable-background:new 0 0 600 800;" xml:space="preserve">
<g>
	<g>
		<path d="M309.03,169.39c1.93,0,1.93-3,0-3C307.1,166.39,307.09,169.39,309.03,169.39L309.03,169.39z"/>
	</g>
</g>
<g>
	<g>
		<path d="M191.46,194.94c0.82,16.98,11.5,31.24,25.29,40.46c17.17,11.48,38.33,14.47,58.28,17.68
			c22.42,3.61,44.78,8.03,66.74,13.85c17.02,4.51,39.48,12.46,43.64,32.1c5.47,25.86-31.32,24.63-47.26,25.49
			c-22.7,1.23-45.44,1.73-68.09,3.78c-21.53,1.95-43.41,5.08-63.94,12.07c-15.83,5.39-32.68,16.2-33.56,34.72
			c-0.85,17.81,18.21,30.36,32.44,36.88c16.48,7.54,34.78,10.29,52.76,10.97c22.56,0.85,45.09-1.65,67.65-0.89
			c19.25,0.64,53.96,2.4,59.86,25.88c5.68,22.61-25.37,32.72-41.71,36.2c-21.23,4.53-43.16,3.72-64.71,2.88
			c-20.92-0.81-42.23-2.02-62.99,1.4c-17.33,2.85-31.59,11.67-34.16,30.2c-2.46,17.72,2.15,36.63,17.81,46.67
			c7.27,4.67,15.61,7.45,23.84,9.89c11.39,3.37,22.92,6.32,34.54,8.82c22.09,4.75,44.59,6.22,66.75,10.43
			c19.68,3.74,39.15,11.12,52.09,27.14c6.15,7.62,10.02,16.73,10.5,26.55c0.1,1.92,3.1,1.93,3,0
			c-0.83-16.75-10.79-30.85-24.02-40.55c-16.05-11.77-36.02-15.73-55.35-18.33c-22.95-3.09-45.63-6.17-68.13-11.86
			c-18.11-4.58-44.06-8.97-53.72-27.2c-5.09-9.6-6.06-22.93-3.96-33.51c2.26-11.38,9.86-19.02,20.66-22.72
			c19.42-6.65,42.17-5.06,62.37-4.34c21.26,0.75,42.67,2.18,63.85-0.5c17.2-2.17,38.26-6.63,50.3-20.28
			c11.5-13.03,6.27-30.36-7.65-39.15c-8.58-5.42-19.05-7.5-28.95-8.92c-10.79-1.55-21.7-1.94-32.59-1.84
			c-40.16,0.35-86.44,7.47-121.14-18.04c-8.62-6.34-17.24-14.97-16.32-26.53c0.89-11.21,9.02-20.1,18.39-25.44
			c9.2-5.24,19.79-8.01,30.03-10.45c11.46-2.73,23.1-4.63,34.79-5.99c22.88-2.66,45.93-3.34,68.92-4.41
			c11.08-0.52,22.28-0.85,33.3-2.16c7.18-0.85,14.85-2.42,20.62-7.06c13.26-10.67,6.05-29.35-4.71-38.86
			c-13.43-11.88-32.44-15.65-49.36-19.61c-22.34-5.23-44.91-8.63-67.46-12.79c-20.07-3.7-40.73-9.84-54.49-25.87
			c-6.49-7.57-10.69-16.73-11.18-26.75C194.37,193.02,191.37,193.01,191.46,194.94L191.46,194.94z"/>
	</g>
</g>
<g>
	<g>
		<path d="M278.4,434.45c16.09,0,16.11-25,0-25C262.31,409.45,262.28,434.45,278.4,434.45L278.4,434.45z"/>
	</g>
</g>
<g>
	<g>
		<path d="M323.44,432.64c16.09,0,16.11-25,0-25C307.36,407.64,307.33,432.64,323.44,432.64L323.44,432.64z"/>
	</g>
</g>
<g>
	<g>
		<path d="M284.66,440.7c0.44,19.96,33.7,17.9,34.2-0.92c0.07-2.57-3.93-2.57-4,0c-0.36,13.67-25.88,15.71-26.2,0.92
			C288.6,438.13,284.6,438.12,284.66,440.7L284.66,440.7z"/>
	</g>
</g>
<g>
	<g>
		<path d="M256.04,488.73c-9.36,11.03-19.2,21.64-29.49,31.82c-1.38,1.36,0.75,3.48,2.12,2.12c10.29-10.18,20.12-20.78,29.49-31.82
			C259.4,489.39,257.29,487.25,256.04,488.73L256.04,488.73z"/>
	</g>
</g>
<g>
	<g>
		<path d="M368.14,479.08c9.88,8.35,19.99,16.41,30.32,24.21c1.54,1.16,3.04-1.44,1.51-2.59c-10.12-7.64-20.02-15.56-29.71-23.74
			C368.79,475.72,366.66,477.84,368.14,479.08L368.14,479.08z"/>
	</g>
</g>
<g>
	<g>
		<path d="M187.41,38.84c11.18-1.43,22.47-1.59,33.66-0.24c8.01,0.97,26.15,2.67,26.66,13.83c0.26,5.69-4.92,9.98-8.8,13.35
			c-4.27,3.7-8.62,7.32-13.02,10.87c-9.44,7.61-19.16,14.86-29.1,21.8c-1.46,1.02-0.51,2.97,1.16,2.74c13-1.81,25.99-3.73,39-5.44
			c3.61-0.47,7.41-0.99,10.88,0.39c5.27,2.09,5.74,7.12,2.44,11.22c-3.74,4.64-9.43,8.25-14.28,11.6
			c-18.67,12.87-40.04,21.29-62.41,24.89c-1.9,0.31-1.09,3.2,0.8,2.89c27.35-4.41,54.54-16.12,75.39-34.6
			c3.45-3.06,7.08-7.4,5.58-12.37c-1.3-4.32-5.68-6.82-9.92-7.38c-7.38-0.97-15.64,1.34-22.93,2.36c-8.45,1.18-16.9,2.36-25.35,3.53
			c0.39,0.91,0.77,1.83,1.16,2.74c11.44-7.98,22.59-16.38,33.36-25.24c6.99-5.75,20.9-14.14,18.86-25.03
			c-1.79-9.56-13.59-12.56-21.66-14c-13.72-2.44-27.67-2.69-41.48-0.92C185.52,36.08,185.5,39.09,187.41,38.84L187.41,38.84z"/>
	</g>
</g>
<g>
	<g>
		<path d="M308.46,79.2c-3.65,13.76-7.3,27.52-10.95,41.28c0.98,0.13,1.96,0.27,2.95,0.4c-1.79-14.52-0.57-29.2,3.78-43.19
			c2.19-7.03,5.13-13.81,8.81-20.19c3.62-6.28,8.34-14.41,15.85-16.45c14.31-3.89,23.43,14.02,28.33,24.29
			c4.64,9.71,9.13,19.63,18.23,25.96c1.59,1.11,3.09-1.49,1.51-2.59c-11.64-8.1-15.16-22.72-22.05-34.35
			c-5.63-9.51-16.45-20.42-28.56-15.59c-6.42,2.56-10.69,8.72-14.2,14.37c-3.87,6.23-7.05,12.9-9.51,19.81
			c-5.46,15.34-7.19,31.79-5.2,47.93c0.19,1.57,2.48,2.17,2.95,0.4c3.65-13.76,7.3-27.52,10.95-41.28
			C311.85,78.13,308.96,77.33,308.46,79.2L308.46,79.2z"/>
	</g>
</g>
<g>
	<g>
		<path d="M281.1,66.82c28.22-1.05,56.45-2.09,84.67-3.14c1.92-0.07,1.93-3.07,0-3c-28.22,1.05-56.45,2.09-84.67,3.14
			C279.18,63.89,279.17,66.89,281.1,66.82L281.1,66.82z"/>
	</g>
</g>
</svg>
